<svg id="Capa_1" data-name="Capa 1" xmlns="http://www.w3.org/2000/svg" xmlns:xlink="http://www.w3.org/1999/xlink" viewBox="0 0 573.52 143.38"><defs><linearGradient id="Degradado_sin_nombre_8" x1="0.74" y1="72" x2="574.26" y2="72" gradientUnits="userSpaceOnUse"><stop offset="0" stop-color="#3b73e0"/><stop offset="0.17" stop-color="#3b79df"/><stop offset="0.38" stop-color="#3c89dc"/><stop offset="0.63" stop-color="#3ca5d8"/><stop offset="0.9" stop-color="#3ecbd2"/><stop offset="1" stop-color="#3edbcf"/></linearGradient></defs><title>logo-web</title><path d="M101.49,93.31A50.38,50.38,0,1,1,51.11,42.94,50.4,50.4,0,0,1,101.49,93.31ZM51.11,120.83A27.51,27.51,0,1,0,23.6,93.31,27.62,27.62,0,0,0,51.11,120.83Zm67,20.93V2.25H141V84.59l33.33-39.72h28.87l-39.33,46.7,41.66,50.18H176.86L141,98.54v43.21ZM229,.31a13.66,13.66,0,1,1-13.56,13.56A13.6,13.6,0,0,1,229,.31ZM217.56,141.75V44.87h22.86v96.88Zm35.65-96.88H278l28.29,69,28.09-69h24.8l-40.11,96.88H293.51ZM383.41.31a13.66,13.66,0,1,1-13.56,13.56A13.6,13.6,0,0,1,383.41.31ZM372,141.75V44.87h22.86v96.88Zm45.34-96.88h22.86V55.34a40.2,40.2,0,0,1,29.06-12.4c14.73,0,26.35,6.78,32.55,18.21,8.72-11,19-18.21,34.49-18.21,22.48,0,38,15.89,38,40.5v58.32H551.4V88.28c0-16.28-8.53-23.83-20.73-23.83-13.17,0-23.44,9.69-23.44,24.61v52.7H484.36V88.28c0-16.28-8.53-23.83-20.73-23.83-13.18,0-23.45,9.69-23.45,25v52.31H417.32Z" transform="translate(-0.74 -0.31)" fill="url(#Degradado_sin_nombre_8)"/></svg>