<?xml version="1.0" encoding="utf-8"?>
<!-- Generator: Adobe Illustrator 21.0.0, SVG Export Plug-In . SVG Version: 6.00 Build 0)  -->
<svg version="1.1" id="Capa_1" xmlns="http://www.w3.org/2000/svg" xmlns:xlink="http://www.w3.org/1999/xlink" x="0px" y="0px"
	 viewBox="0 0 588 145" style="enable-background:new 0 0 588 145;" xml:space="preserve">
<style type="text/css">
	.st0{fill:url(#SVGID_1_);}
</style>
<linearGradient id="SVGID_1_" gradientUnits="userSpaceOnUse" x1="0" y1="73.27" x2="586.4307" y2="73.27">
	<stop  offset="0" style="stop-color:#3B73E0"/>
	<stop  offset="0.1653" style="stop-color:#3B79DF"/>
	<stop  offset="0.3835" style="stop-color:#3C89DC"/>
	<stop  offset="0.6312" style="stop-color:#3CA5D8"/>
	<stop  offset="0.8988" style="stop-color:#3ECBD2"/>
	<stop  offset="1" style="stop-color:#3EDBCF"/>
</linearGradient>
<path class="st0" d="M90.6,59.3c9.9,9,14.9,21.1,14.9,36.2s-5,27.2-14.9,36.1c-9.9,8.9-22.5,13.4-37.9,13.4
	c-15.4,0-28-4.5-37.9-13.4C4.9,122.7,0,110.6,0,95.5s4.9-27.2,14.9-36.2c9.9-9,22.5-13.5,37.9-13.5C68.1,45.8,80.7,50.3,90.6,59.3z
	 M30.1,95.5c0,23.5,7.6,35.3,22.7,35.3c15.1,0,22.7-11.8,22.7-35.3c0-10.3-1.7-18.8-5.2-25.5c-3.5-6.7-9.3-10-17.5-10
	c-8.2,0-14,3.3-17.5,10C31.8,76.7,30.1,85.2,30.1,95.5z M184.9,143.2l-25.6-43l-14.4,13.7v29.3h-29.2V5.1h29.2v86l45.7-43.6h23.9
	l-33.3,31.7l37.6,63.9H184.9z M255.2,18.1c0,4.7-1.7,8.6-5,11.9c-3.4,3.2-7.4,4.9-12.1,4.9c-4.6,0-8.5-1.6-11.8-4.9
	c-3.3-3.2-4.9-7.2-4.9-11.9c0-4.6,1.6-8.5,4.9-11.7c3.3-3.2,7.2-4.9,11.8-4.9c4.7,0,8.7,1.6,12.1,4.9
	C253.6,9.6,255.2,13.5,255.2,18.1z M223.7,143.2V47.6h29.2v95.6H223.7z M365.2,47.6l-40.3,95.6h-24.1l-40.3-95.6h31.7l26.8,67.3
	l28.4-67.3H365.2z M404.3,18.1c0,4.7-1.7,8.6-5,11.9c-3.4,3.2-7.4,4.9-12.1,4.9c-4.6,0-8.5-1.6-11.8-4.9c-3.3-3.2-5-7.2-5-11.9
	c0-4.6,1.6-8.5,5-11.7c3.3-3.2,7.2-4.9,11.8-4.9c4.7,0,8.7,1.6,12.1,4.9C402.6,9.6,404.3,13.5,404.3,18.1z M372.8,143.2V47.6h29.2
	v95.6H372.8z M449.5,89.4v53.8h-29.2V47.6h26.3l2.9,14.8c5.9-11,16.1-16.6,30.6-16.6c9,0,16.1,2,21.3,5.9s8.9,8.5,11.1,13.5
	c3.1-6.2,7.7-11,13.8-14.4c6.1-3.4,13-5,20.8-5c12.1,0,21.7,3.8,28.8,11.4c7.1,7.6,10.6,17.6,10.6,30v56h-29.2V87.9
	c0-7-1.7-12.5-5-16.6c-3.3-4.1-8.2-6.1-14.7-6.1c-6.4,0-11.3,2.3-14.7,6.8s-5.1,10.3-5.1,17.4v53.8h-29V89.9
	c0-16.4-6.5-24.7-19.4-24.7c-6.5,0-11.4,2.3-14.8,6.8C451.2,76.7,449.5,82.4,449.5,89.4z"/>
</svg>
